<?xml version="1.0"?>
<svg width="300" height="112" xmlns="http://www.w3.org/2000/svg" xmlns:svg="http://www.w3.org/2000/svg">
 <defs>
  <clipPath id="clip0_1221_11836">
   <rect fill="white" height="112" id="svg_1" width="300"/>
  </clipPath>
 </defs>
 <g class="layer">
  <title>Layer 1</title>
  <g clip-path="url(#clip0_1221_11836)" id="svg_2">
   <path d="m212.256537,57.485066l-7.019219,0l0,25.833908l7.019219,0l0,-25.833908z" fill="#66B821" id="svg_3"/>
   <path d="m163.512711,70.408858c0,-3.73354 -1.279896,-7.343996 -3.624126,-10.21595c-2.34423,-2.871954 -5.604597,-4.841293 -9.215251,-5.56612l0,31.550463c3.610654,-0.71115 6.87102,-2.68049 9.215251,-5.56612c2.34423,-2.871954 3.624126,-6.48241 3.624126,-10.202274z" fill="#66B821" id="svg_4"/>
   <path d="m150.659862,36.547155l0,13.087904c4.89055,0.793206 9.336504,3.323261 12.54298,7.125181c3.219949,3.815596 4.971385,8.643213 4.971385,13.648618c0,4.991729 -1.751437,9.833023 -4.971385,13.634942c-3.206476,3.815596 -7.65243,6.331974 -12.54298,7.125181l0,12.281021l61.610147,0l0,-15.166651l-9.484702,0c-0.660157,0 -1.279896,-0.259843 -1.737964,-0.724826c-0.458068,-0.464983 -0.72752,-1.094078 -0.72752,-1.750524l0,-30.798285c0.013473,-0.656447 0.269452,-1.271865 0.72752,-1.736848c0.471541,-0.464983 1.09128,-0.71115 1.737964,-0.71115l9.47123,0l0,-16.014561l-61.596675,0z" fill="#66B821" id="svg_5"/>
   <path d="m91.272692,57.485066l-7.019219,0l0,25.833908l7.019219,0l0,-25.833908z" fill="#007A32" id="svg_6"/>
   <path d="m133.010771,70.408858c0,-3.73354 1.279896,-7.343996 3.624126,-10.21595c2.34423,-2.871954 5.591124,-4.841293 9.215251,-5.56612l0,31.550463c-3.624126,-0.71115 -6.884493,-2.68049 -9.215251,-5.56612c-2.34423,-2.871954 -3.624126,-6.48241 -3.624126,-10.202274z" fill="#007A32" id="svg_7"/>
   <path d="m145.850148,36.547155l0,13.087904c-4.877077,0.793206 -9.323031,3.323261 -12.54298,7.125181c-3.206476,3.815596 -4.971385,8.643213 -4.971385,13.648618c0,4.991729 1.764909,9.833023 4.971385,13.634942c3.219949,3.815596 7.665903,6.331974 12.54298,7.125181l0,12.281021l-61.610147,0l0,-15.166651l9.484702,0c0.646684,0 1.266423,-0.259843 1.737964,-0.724826c0.458068,-0.464983 0.714047,-1.094078 0.714047,-1.750524l0,-30.798285c-0.013473,-0.642771 -0.269452,-1.271865 -0.72752,-1.723172c-0.458068,-0.464983 -1.064334,-0.724826 -1.711019,-0.724826l-9.47123,0l0,-16.014561l61.583202,0z" fill="#007A32" id="svg_8"/>
   <path d="m148.261741,3c-28.858285,0.13676 -54.537038,11.145916 -63.994795,27.502376l6.938383,0c2.142142,-2.789898 4.648043,-5.251573 7.450341,-7.357672l11.775042,7.357672l9.363449,0l12.556452,-19.050627l12.90674,19.050627l3.004387,0l0,-27.502376zm-34.328155,24.02868l-10.926269,-6.824309c3.475928,-2.106099 7.140472,-3.897652 10.926269,-5.333628l0,12.157938zm4.823187,-3.66516l0,-10.133894c2.60021,-0.806882 5.294727,-1.518033 8.070081,-2.119775l-8.070081,12.253669zm18.053269,-13.867434c3.058278,-0.341899 6.170446,-0.547039 9.296086,-0.629095l0,14.332417l-9.296086,-13.703322z" fill="#007A32" id="svg_9"/>
   <path d="m148.261741,30.543404l3.004387,0l12.920212,-19.050627l12.54298,19.050627l9.363449,0l11.775042,-7.357672c2.802298,2.092423 5.321672,4.567774 7.450341,7.357672l6.951856,0c-9.484702,-16.397488 -35.163456,-27.406644 -64.008268,-27.543404l0,27.543404zm34.314683,-15.672662c3.79927,1.435977 7.463814,3.213853 10.939742,5.319952l-10.939742,6.824309l0,-12.144262zm-12.879795,-3.774568c2.788826,0.588067 5.496816,1.299217 8.070081,2.106099l0,10.161246l-8.070081,-12.267345zm-19.252329,12.103234l0,-14.332417c3.112168,0.082056 6.237808,0.300871 9.282613,0.629095l-9.282613,13.703322z" fill="#66B821" id="svg_10"/>
  </g>
 </g>
</svg>